<?xml version="1.0" encoding="UTF-8" standalone="no"?>
<!DOCTYPE svg PUBLIC "-//W3C//DTD SVG 1.1//EN" "http://www.w3.org/Graphics/SVG/1.1/DTD/svg11.dtd">
<svg xmlns="http://www.w3.org/2000/svg" version="1.1" viewBox="0 0 440 440">
<path fill="#fff" d="
  M 300.02 347.38
  Q 298.29 345.77 296.42 343.75
  C 296.01 343.29 295.32 343.21 294.80 343.55
  Q 257.80 367.69 213.25 372.75
  Q 185.43 375.91 156.99 370.21
  Q 147.34 368.27 137.67 365.14
  Q 76.66 345.37 40.30 292.79
  Q 34.61 284.55 29.90 275.74
  Q -1.26 217.40 11.31 152.06
  Q 19.02 111.98 44.15 78.19
  Q 50.05 70.26 56.92 62.80
  Q 102.89 12.90 170.50 4.00
  Q 206.24 -0.70 242.36 9.19
  Q 252.01 11.83 261.31 15.52
  Q 309.43 34.65 340.94 75.81
  Q 370.02 113.81 377.03 161.32
  Q 378.49 171.15 378.84 181.23
  Q 380.93 241.88 346.73 292.51
  Q 343.56 297.20 340.13 302.40
  C 339.93 302.70 339.97 303.10 340.22 303.35
  Q 379.20 342.60 418.14 382.17
  Q 425.80 389.95 428.05 394.38
  Q 432.92 403.92 430.25 414.75
  Q 427.61 425.47 419.05 431.33
  Q 411.04 436.81 401.06 436.80
  Q 389.61 436.79 380.94 428.31
  Q 362.43 410.22 303.74 350.88
  Q 303.05 350.18 300.02 347.38
  Z
  M 328.80 188.16
  C 328.80 113.40 268.19 52.79 193.43 52.79
  C 118.67 52.79 58.06 113.40 58.06 188.16
  C 58.06 262.92 118.67 323.53 193.43 323.53
  C 268.19 323.53 328.80 262.92 328.80 188.16
  Z"
/>
<path fill="#fff" d="
  M 154.53 170.57
  Q 154.20 169.66 153.76 170.52
  Q 146.40 184.75 139.44 197.94
  Q 137.80 201.04 134.21 202.42
  Q 132.09 203.23 127.68 203.33
  Q 109.10 203.77 90.52 203.35
  Q 85.32 203.23 82.72 201.89
  Q 78.64 199.78 77.24 195.49
  Q 75.54 190.32 78.04 185.70
  Q 79.91 182.23 83.72 180.69
  Q 86.07 179.75 90.91 179.75
  Q 105.53 179.75 120.76 179.75
  C 121.41 179.75 122.00 179.39 122.30 178.82
  Q 133.89 156.60 145.06 134.81
  Q 148.21 128.67 155.75 128.50
  Q 161.06 128.38 164.32 131.94
  Q 166.07 133.85 168.16 139.64
  Q 181.16 175.54 194.00 211.51
  Q 194.62 213.24 195.06 211.46
  Q 195.52 209.58 196.54 207.37
  Q 207.04 184.67 217.61 162.01
  Q 219.80 157.32 221.71 155.54
  Q 224.78 152.66 229.00 152.25
  Q 233.30 151.83 236.80 154.23
  Q 239.07 155.79 241.00 159.71
  Q 245.54 168.95 249.90 178.95
  C 250.11 179.44 250.58 179.75 251.11 179.75
  Q 272.74 179.75 293.63 179.75
  Q 299.99 179.75 302.27 180.60
  Q 306.83 182.31 308.69 187.31
  Q 309.89 190.54 309.12 193.99
  Q 308.37 197.34 306.10 199.65
  Q 302.50 203.29 296.31 203.31
  Q 258.87 203.47 244.74 203.31
  Q 239.19 203.25 236.53 201.76
  Q 232.26 199.35 230.68 194.04
  Q 230.07 191.98 229.18 193.94
  Q 217.18 220.63 205.07 247.28
  Q 203.30 251.18 199.96 253.35
  Q 196.70 255.47 192.68 255.36
  Q 185.25 255.17 182.25 247.00
  Q 168.19 208.71 154.53 170.57
  Z"
/>
</svg>
